<?xml version="1.0"?>
<!-- <svg xmlns="http://www.w3.org/2000/svg" xmlns:xlink="http://www.w3.org/1999/xlink" version="1.1" id="Layer_1" x="0px" y="0px" viewBox="0 0 507.632 507.632" style="enable-background:new 0 0 507.632 507.632;" xml:space="preserve" width="512px" height="512px" class="hovered-paths"><g transform="matrix(-1.83697e-16 -1 1 -1.83697e-16 1.13687e-13 507.632)"><path style="fill:#F8EF08" d="M220.511,218.276l-194.8,38.8c-11.6,2-18.8,6-19.6,10.4c-0.4,4.4,5.6,10,16,15.2l454,211.2  c8.4,4,15.6,5.2,21.6,3.2l-275.6-279.2C220.511,218.276,220.511,218.276,220.511,218.276z" data-original="#4BB19B" class="" data-old_color="#4BB19B"/><path style="fill:#C6B821" d="M500.111,494.676c2.8-4,1.6-12-3.2-21.6l-216.4-448.4c-4.8-10-10.4-16-14.4-16  c-4.8,0-8.8,7.2-10.8,19.6l-34.8,187.6l277.2,280.8C499.711,495.076,499.711,495.076,500.111,494.676z" data-original="#61C2AB" class="active-path" data-old_color="#61C2AB"/><path d="M492.111,504.276c-5.2,0-11.6-1.6-18.4-4.8l-454-211.2c-17.2-8-20.4-16-19.6-21.2c0.8-5.2,5.6-12.4,24.4-15.6l192-38  l32.8-185.6c2.8-18.8,10-23.6,15.2-24.4s13.2,2,21.6,19.2l216.4,448.4l0,0c6.4,13.6,6.8,24,1.2,29.6  C500.511,502.676,496.911,504.276,492.111,504.276z M266.112,10.676C265.711,10.676,265.711,10.676,266.112,10.676  c-2.8,0.4-6.8,5.2-8.8,18l-33.6,188.4c-0.4,1.6-1.6,2.8-3.2,3.2l-194.8,38.8c-12.8,2.4-17.6,6-18,8.8s3.2,7.6,14.8,13.2l454,211.2  c11.6,5.6,18.4,4.8,20.8,2.4s2.8-9.2-2.8-20.8l-215.6-448.4C273.311,14.676,268.511,10.676,266.112,10.676z" data-original="#000000" class="" style="fill:#000000" data-old_color="#000000"/><path d="M499.711,502.276c-1.2,0-2-0.4-2.8-1.2l-206.4-209.2c-1.6-1.6-1.6-4,0-5.6s4-1.6,5.6,0l206.4,209.2c1.6,1.6,1.6,4,0,5.6  C501.711,501.876,500.511,502.276,499.711,502.276z" data-original="#000000" class="" style="fill:#000000" data-old_color="#000000"/><path d="M253.311,252.676c-1.2,0-2-0.4-2.8-1.2l-33.2-33.6c-1.6-1.6-1.6-4,0-5.6s4-1.6,5.6,0l33.2,33.6c1.6,1.6,1.6,4,0,5.6  C255.311,252.276,254.511,252.676,253.311,252.676z" data-original="#000000" class="" style="fill:#000000" data-old_color="#000000"/></g> </svg> -->
<svg xmlns="http://www.w3.org/2000/svg" xmlns:xlink="http://www.w3.org/1999/xlink" version="1.1" id="Layer_1" x="0px" y="0px" viewBox="0 0 507.632 507.632" xml:space="preserve" width="512px" height="512px" class="hovered-paths"><g transform="matrix(-1.83697e-16 -1 1 -1.83697e-16 1.13687e-13 507.632)"><path style="fill:#F8EF08" d="M220.511,218.276l-194.8,38.8c-11.6,2-18.8,6-19.6,10.4c-0.4,4.4,5.6,10,16,15.2l454,211.2  c8.4,4,15.6,5.2,21.6,3.2l-275.6-279.2C220.511,218.276,220.511,218.276,220.511,218.276z" data-original="#4BB19B" class="" data-old_color="#4BB19B"/><path style="fill:#C6B821" d="M500.111,494.676c2.8-4,1.6-12-3.2-21.6l-216.4-448.4c-4.8-10-10.4-16-14.4-16  c-4.8,0-8.8,7.2-10.8,19.6l-34.8,187.6l277.2,280.8C499.711,495.076,499.711,495.076,500.111,494.676z" data-original="#61C2AB" class="active-path" data-old_color="#61C2AB"/><path d="M492.111,504.276c-5.2,0-11.6-1.6-18.4-4.8l-454-211.2c-17.2-8-20.4-16-19.6-21.2c0.8-5.2,5.6-12.4,24.4-15.6l192-38  l32.8-185.6c2.8-18.8,10-23.6,15.2-24.4s13.2,2,21.6,19.2l216.4,448.4l0,0c6.4,13.6,6.8,24,1.2,29.6  C500.511,502.676,496.911,504.276,492.111,504.276z M266.112,10.676C265.711,10.676,265.711,10.676,266.112,10.676  c-2.8,0.4-6.8,5.2-8.8,18l-33.6,188.4c-0.4,1.6-1.6,2.8-3.2,3.2l-194.8,38.8c-12.8,2.4-17.6,6-18,8.8s3.2,7.6,14.8,13.2l454,211.2  c11.6,5.6,18.4,4.8,20.8,2.4s2.8-9.2-2.8-20.8l-215.6-448.4C273.311,14.676,268.511,10.676,266.112,10.676z" data-original="#000000" class="" style="fill:#000000" data-old_color="#000000"/><path d="M499.711,502.276c-1.2,0-2-0.4-2.8-1.2l-206.4-209.2c-1.6-1.6-1.6-4,0-5.6s4-1.6,5.6,0l206.4,209.2c1.6,1.6,1.6,4,0,5.6  C501.711,501.876,500.511,502.276,499.711,502.276z" data-original="#000000" class="" style="fill:#000000" data-old_color="#000000"/><path d="M253.311,252.676c-1.2,0-2-0.4-2.8-1.2l-33.2-33.6c-1.6-1.6-1.6-4,0-5.6s4-1.6,5.6,0l33.2,33.6c1.6,1.6,1.6,4,0,5.6  C255.311,252.276,254.511,252.676,253.311,252.676z" data-original="#000000" class="" style="fill:#000000" data-old_color="#000000"/></g> </svg>
